<svg xmlns="http://www.w3.org/2000/svg" width="103.672" height="80" viewBox="0 0 103.672 80"><path d="M102.725,93.246c-2.034,2.556-6.983,4.373-6.983,4.373L58.829,110.866v-9.773l27.159-9.683c3.078-1.1,3.564-2.664,1.044-3.492-2.5-.828-7.037-.594-10.115.522L58.829,94.83V84.679a63.806,63.806,0,0,1,13.624-3.024,53.676,53.676,0,0,1,23.433,2.79c7.955,2.52,8.855,6.245,6.839,8.8ZM62.338,76.6V51.582c0-2.934-.54-5.633-3.294-6.407-2.106-.684-3.42,1.278-3.42,4.211V112l-16.882-5.363V32A203.378,203.378,0,0,1,62,38.371c14.308,4.913,19.15,11.033,19.15,24.8,0,13.408-8.279,18.5-18.808,13.426ZM7.751,100.067c-8.171-2.3-9.539-7.109-5.813-9.863,3.438-2.556,9.3-4.481,9.3-4.481l24.207-8.6v9.809L18.028,93.156c-3.078,1.1-3.546,2.664-1.044,3.492s7.037.594,10.115-.522l8.351-3.042v8.783a54.761,54.761,0,0,1-27.7-1.8Z" transform="translate(0.029 -32)" fill="#fff"/></svg>