<svg xmlns="http://www.w3.org/2000/svg" width="81.633" height="80" viewBox="0 0 81.633 80"><path d="M31.837,0a5.714,5.714,0,1,0,5.714,5.714A5.721,5.721,0,0,0,31.837,0ZM12.4,3.265C5.326,3.265,0,9.061,0,16.735c0,6.983,7.187,10.2,12.041,10.2,5.006,0,12.449-3.38,12.449-12.807C24.49,5.548,16.575,3.265,12.4,3.265ZM51.122,8.214c-20.279,0-36.735,18.042-36.735,40.2C14.389,68.023,38.833,80,52.145,80,66.07,80,81.633,63.629,81.633,41.683,81.633,20.459,58.475,8.214,51.122,8.214ZM29.388,31.02h8.163V49.8A2.449,2.449,0,0,0,40,52.245H54.694A2.449,2.449,0,0,0,57.143,49.8V31.02h8.163V60.408H40A10.612,10.612,0,0,1,29.388,49.8Z" fill="#fff"/></svg>