<svg xmlns="http://www.w3.org/2000/svg" width="80" height="80" viewBox="0 0 80 80"><path d="M66.414,57.983C73.56,66.74,76.85,73.916,75.189,77.125c-1.274,2.435-9.146,7.192-14.937,9.015a43.921,43.921,0,0,1-16.2,1.645A40.128,40.128,0,0,1,26.3,81.5c-4.5-2.935-5.517-4.144-5.517-6.547,0-4.822,5.307-13.272,14.389-22.916,5.162-5.467,12.34-11.885,13.13-11.708,1.516.339,13.6,12.111,18.115,17.658ZM37.169,29.859c-4.791-4.338-9.372-8.692-13.937-10.224-2.452-.822-2.629-.774-4.63,1.306A39.967,39.967,0,0,0,8.875,40.679C8,46.195,7.891,47.743,8.2,50.436c.9,8.144,2.791,13.772,6.533,19.5,1.532,2.354,1.952,2.79,1.5,1.6-.677-1.774-.048-6.047,1.532-10.321C20.07,54.919,26.458,43,37.169,29.859ZM87.432,40.1C84.706,27.2,76.544,19.086,75.4,19.086a15.057,15.057,0,0,0-5.807,2.242c-3.758,2.338-6.614,5.064-10.372,8.515,6.839,8.6,16.486,22.48,19.825,32.624,1.1,3.338,1.565,6.628,1.194,8.434-.274,1.371-.274,1.371.226.742a48.878,48.878,0,0,0,4.1-7.015,47.324,47.324,0,0,0,3-9.466A52.372,52.372,0,0,0,87.432,40.1ZM29.539,13.6c7.694-.4,17.7,5.564,18.437,5.709a32.107,32.107,0,0,0,3.484-1.564c10.308-5.015,15.163-4.161,17.324-4.064A39.95,39.95,0,0,0,31.055,11.8c-3.775,1.79-3.871,1.919-1.516,1.806Z" transform="translate(-8.043 -7.951)" fill="#fff"/></svg>